<?xml version="1.0" encoding="utf-8"?>
<!-- Generator: Adobe Illustrator 23.0.6, SVG Export Plug-In . SVG Version: 6.00 Build 0)  -->
<svg version="1.1" id="Layer_1" xmlns="http://www.w3.org/2000/svg" xmlns:xlink="http://www.w3.org/1999/xlink" x="0px" y="0px"
	 viewBox="0 0 512 512" style="enable-background:new 0 0 512 512;" xml:space="preserve">
<style type="text/css">
	.st0{fill:#2365a4;}
	.st1{fill:#FFFFFF;}
</style>
<circle class="st0" cx="256" cy="256" r="256"/>
<path class="st1" d="M433.82,160.72c-9.29-4.47-19.83-6.67-30.86-5.9c-9,0.62-17.4,3.17-24.86,7.19
	c9.32-7.26,20.82-11.92,33.49-12.8c4.3-0.3,8.52-0.14,12.62,0.42c2.77-31.8-18.84-61.23-50.88-67.48
	c-15.28-2.99-31.13-0.23-44.5,7.75c-25.33,15.13-36.86,45.75-27.79,73.83l-147.63,87.96c-24.09-25.29-64.13-26.26-89.42-2.17
	c-25.29,24.09-26.26,64.13-2.17,89.42c7.19,7.55,16.13,13.19,26.03,16.45c10.4,2.59,21.3,2.41,31.55-0.46
	c-9.83,4.64-20.69,6.56-31.41,5.68c-3.75,32.48,18.07,62.89,50.71,69.26c34.28,6.69,67.5-15.68,74.18-49.96
	c2.05-10.53,1.4-21.4-1.91-31.6l147.63-87.96c24.09,25.29,64.13,26.26,89.42,2.17c25.29-24.09,26.26-64.13,2.17-89.42
	C445.42,168.07,439.89,163.91,433.82,160.72z"/>
<path class="st0" d="M306.03,266.54c-1.53,0-3.03-0.78-3.87-2.2c-1.27-2.14-0.57-4.9,1.56-6.17l8.92-5.32
	c2.14-1.27,4.9-0.57,6.17,1.56c1.27,2.13,0.57,4.9-1.56,6.17l-8.92,5.32C307.61,266.34,306.81,266.54,306.03,266.54z"/>
<path class="st0" d="M264.79,291.11c-1.53,0-3.03-0.78-3.87-2.2c-1.27-2.14-0.57-4.9,1.56-6.17l25.17-15
	c2.14-1.27,4.9-0.57,6.17,1.56c1.27,2.14,0.57,4.9-1.56,6.17l-25.17,15C266.37,290.91,265.58,291.11,264.79,291.11z"/>
<path class="st0" d="M209.97,323.78c-1.53,0-3.03-0.78-3.87-2.2c-1.27-2.14-0.57-4.9,1.56-6.17l37.15-22.13
	c2.13-1.27,4.9-0.57,6.17,1.56c1.27,2.14,0.57,4.9-1.56,6.17l-37.15,22.13C211.55,323.57,210.75,323.78,209.97,323.78z"/>
</svg>
