<?xml version="1.0" encoding="utf-8"?>
<!-- Generator: Adobe Illustrator 23.0.6, SVG Export Plug-In . SVG Version: 6.00 Build 0)  -->
<svg version="1.1" id="Layer_1" xmlns="http://www.w3.org/2000/svg" xmlns:xlink="http://www.w3.org/1999/xlink" x="0px" y="0px"
	 viewBox="0 0 1064.38 512" style="enable-background:new 0 0 1064.38 512;" xml:space="preserve">
<style type="text/css">
	.st0{fill:#2365a4;}
	.st1{fill:#FFFFFF;}
</style>
<g>
	<circle class="st0" cx="256" cy="256" r="256"/>
	<path class="st1" d="M433.82,160.72c-9.29-4.47-19.83-6.67-30.86-5.9c-9,0.62-17.4,3.17-24.86,7.19
		c9.32-7.26,20.82-11.92,33.49-12.8c4.3-0.3,8.52-0.14,12.62,0.42c2.77-31.8-18.84-61.23-50.88-67.48
		c-15.28-2.99-31.13-0.23-44.5,7.75c-25.33,15.13-36.86,45.75-27.79,73.83l-147.63,87.96c-24.09-25.29-64.13-26.26-89.42-2.17
		c-25.29,24.09-26.26,64.13-2.17,89.42c7.19,7.55,16.13,13.19,26.03,16.45c10.4,2.59,21.3,2.41,31.55-0.46
		c-9.83,4.64-20.69,6.56-31.41,5.68c-3.75,32.48,18.07,62.89,50.71,69.26c34.28,6.69,67.5-15.68,74.18-49.96
		c2.05-10.53,1.4-21.4-1.91-31.6l147.63-87.96c24.09,25.29,64.13,26.26,89.42,2.17c25.29-24.09,26.26-64.13,2.17-89.42
		C445.42,168.07,439.89,163.91,433.82,160.72z"/>
	<path class="st0" d="M306.03,266.54c-1.53,0-3.03-0.78-3.87-2.2c-1.27-2.14-0.57-4.9,1.56-6.17l8.92-5.32
		c2.14-1.27,4.9-0.57,6.17,1.56c1.27,2.13,0.57,4.9-1.56,6.17l-8.92,5.32C307.61,266.34,306.81,266.54,306.03,266.54z"/>
	<path class="st0" d="M264.79,291.11c-1.53,0-3.03-0.78-3.87-2.2c-1.27-2.14-0.57-4.9,1.56-6.17l25.17-15
		c2.14-1.27,4.9-0.57,6.17,1.56c1.27,2.14,0.57,4.9-1.56,6.17l-25.17,15C266.37,290.91,265.58,291.11,264.79,291.11z"/>
	<path class="st0" d="M209.97,323.78c-1.53,0-3.03-0.78-3.87-2.2c-1.27-2.14-0.57-4.9,1.56-6.17l37.15-22.13
		c2.13-1.27,4.9-0.57,6.17,1.56c1.27,2.14,0.57,4.9-1.56,6.17l-37.15,22.13C211.55,323.57,210.75,323.78,209.97,323.78z"/>
</g>
<g>
	<path d="M779.72,228.76v104.74c0,11.13-9.21,20.33-20.33,20.33c-10.74,0-19.95-9.21-19.95-20.33v-1.92
		c-13.81,15.73-35.3,24.55-59.85,24.55c-30.31,0-64.45-20.33-64.45-61.38c0-42.58,34.14-60.23,64.45-60.23
		c24.94,0,46.42,8.06,59.85,23.79v-27.62c0-21.49-17.65-34.53-43.35-34.53c-15.73,0-29.54,4.22-43.35,13.81
		c-2.3,1.54-5.75,2.69-9.21,2.69c-8.82,0-16.11-7.29-16.11-16.11c0-5.37,3.07-10.36,6.91-13.04c20.33-14.96,43.35-21.87,68.29-21.87
		C743.66,161.62,779.72,178.88,779.72,228.76z M739.44,309.32v-28.01c-9.21-12.66-26.47-19.18-44.12-19.18
		c-22.64,0-39.52,13.04-39.52,33.38c0,19.95,16.88,32.99,39.52,32.99C712.97,328.5,730.23,321.98,739.44,309.32z"/>
	<path d="M935.1,181.95c0,9.21-6.91,17.26-20.72,19.18c-13.81,1.92-34.14,11.13-42.2,24.17v108.19c0,11.13-9.21,20.33-19.95,20.33
		c-11.13,0-20.33-9.21-20.33-20.33V184.25c0-11.13,9.21-20.33,19.95-20.33c11.13,0,20.33,9.21,20.33,20.33v9.21
		c9.97-13.04,23.79-24.17,35.68-28.01c4.6-1.53,7.29-2.3,10.74-2.3C930.11,163.15,935.1,171.98,935.1,181.95z"/>
	<path d="M1014.89,155.86v10.36h22.25c9.59,0,17.65,8.06,17.65,17.65c0,9.59-8.06,17.65-17.65,17.65h-22.25v131.98
		c0,11.13-9.21,20.33-19.95,20.33c-11.13,0-20.33-9.21-20.33-20.33V201.52h-15.35c-9.59,0-17.65-8.06-17.65-17.65
		c0-9.59,8.06-17.65,17.65-17.65h15.35v-10.36c0-41.43,24.55-64.07,58.7-64.07c6.52,0,13.04,0.77,18.8,2.3
		c6.91,1.92,12.28,7.67,12.28,15.35c0,9.21-4.99,16.11-15.73,16.11c-2.69,0-6.14-0.77-8.06-0.77
		C1024.86,124.79,1014.89,135.15,1014.89,155.86z"/>
</g>
</svg>
